<svg width="50" height="56.99999999999999" xmlns="http://www.w3.org/2000/svg">
 <g>
  <title>Layer 1</title>
  <g stroke="null" id="svg_6">
   <g stroke="null" id="svg_2">
    <g stroke="null" id="svg_3" data-name="Grupo 149">
     <path stroke="null" id="svg_4" data-name="Trazado 73" d="m6.92517,6.55815a3.02077,3.11133 0 1 1 3.5586,-0.00333c0.03472,0.01576 0.06414,0.0303 0.09444,0.04273a5.56431,5.73112 0 0 1 3.66335,4.56138a5.67464,5.84476 0 0 1 0.06502,0.82912a0.42839,0.44123 0 0 1 -0.47075,0.49487q-1.81976,0.00152 -3.63952,0l-6.56466,0c-0.38837,0 -0.54137,-0.15758 -0.53725,-0.55305a5.61609,5.78446 0 0 1 3.69542,-5.31535c0.04178,-0.01546 0.08385,-0.03424 0.13534,-0.05637zm-2.93662,5.02898l9.42479,0a4.73166,4.87352 0 0 0 -9.42479,0zm4.72725,-9.76915a2.15694,2.2216 0 1 0 2.14252,2.22857a2.15752,2.2222 0 0 0 -2.14252,-2.22857z"/>
    </g>
   </g>
  </g>
 </g>

</svg>