<svg width="50" height="57" xmlns="http://www.w3.org/2000/svg">
 <g>
  <title>Layer 1</title>
  <g stroke="null">
   <path stroke="null" d="m15.62723,3.45069c-0.09515,-0.0894 -0.28544,-0.1788 -0.42817,-0.1788l-7.23124,0c-0.33302,0 -0.57089,0.2235 -0.57089,0.53641s0.23787,0.53641 0.57089,0.53641l6.51763,0l-0.76118,3.75484l-5.70887,0l-2.14083,-6.21336c-0.04757,-0.2235 -0.28544,-0.3576 -0.52331,-0.3576l-2.52142,0c-0.33302,0 -0.57089,0.2235 -0.57089,0.53641s0.28544,0.53641 0.57089,0.53641l2.09325,0l2.56899,7.42028c-0.33302,0.2682 -0.52331,0.67051 -0.52331,1.11751c0,0.80461 0.71361,1.47512 1.56994,1.47512c0.66604,0 1.18935,-0.3576 1.42722,-0.89401l1.23692,0c0.23787,0.53641 0.80876,0.89401 1.42722,0.89401c0.85633,0 1.56994,-0.67051 1.56994,-1.47512s-0.71361,-1.47512 -1.56994,-1.47512c-0.66604,0 -1.23692,0.4023 -1.47479,0.98341l-1.18935,0c-0.1903,-0.53641 -0.76118,-0.93871 -1.42722,-0.98341l-0.1903,-0.49171l5.80402,0c0.28544,0 0.52331,-0.1788 0.57089,-0.447l0.99905,-4.82765c0.04757,-0.1341 0,-0.3129 -0.09515,-0.447zm-2.99716,7.19677c0.28544,0 0.52331,0.2235 0.52331,0.49171s-0.23787,0.49171 -0.52331,0.49171c-0.28544,0 -0.52331,-0.2235 -0.52331,-0.49171s0.23787,-0.49171 0.52331,-0.49171zm-4.13893,0c0.28544,0 0.52331,0.2235 0.52331,0.49171s-0.23787,0.49171 -0.52331,0.49171c-0.28544,0 -0.52331,-0.2235 -0.52331,-0.49171s0.23787,-0.49171 0.52331,-0.49171z"/>
  </g>
 </g>

</svg>