<svg width="50" height="57" xmlns="http://www.w3.org/2000/svg">
 <g>
  <title>Layer 1</title>
  <g stroke="null" id="svg_14">
   <path stroke="null" id="svg_4" fill="#DEDEDE" d="m2.25106,7.87962c-0.02806,-0.68548 -1.55144,-4.04005 -0.12879,-5.51786c2.09997,-2.18137 8.67806,0 8.67806,0l0,5.61844c0,0 -7.34971,-0.29402 -8.54928,-0.10058c0.00464,0.11332 -0.0316,0.15371 -0.12879,0.10058c-0.0781,-0.04271 -0.02558,-0.07569 0.12879,-0.10058z"/>
   <path stroke="null" id="svg_5" fill="#474747" d="m14.68375,5.54865l-0.36668,-1.20275c0.10022,-0.01745 0.17546,-0.09041 0.17546,-0.17778l0,-0.19391c0,-0.42105 -0.41773,-0.7636 -0.93112,-0.7636l-1.67007,0l0,-0.4c0,-0.20719 -0.20553,-0.37574 -0.45818,-0.37574l-8.51313,0c-0.25265,0 -0.45818,0.16855 -0.45818,0.37574l0,3.29677c0,0.10039 0.09925,0.18183 0.22171,0.18183c0.12243,0 0.2217,-0.08141 0.2217,-0.18183l0,-3.29677c0,-0.00669 0.00661,-0.01211 0.01477,-0.01211l8.51309,0c0.00815,0 0.01477,0.00542 0.01477,0.01211l0,3.29684c0,0.10039 0.09923,0.1818 0.22168,0.1818c0.12246,0 0.22172,-0.08137 0.22172,-0.1818l0,-0.20612l2.61523,0c0.00023,0 0.00038,0.00006 0.00057,0.00006c0.00023,0 0.00042,-0.00003 0.00061,-0.00003c0.32179,0.00019 0.59506,0.17339 0.68893,0.41208l-0.68939,0c-0.12242,0 -0.22168,0.08141 -0.22168,0.18183l0,0.38785c0,0.3141 0.31161,0.56965 0.69463,0.56965l0.25126,0l0,0.79993l-0.57967,0c-0.19042,-0.4509 -0.71311,-0.7757 -1.32692,-0.7757c-0.61377,0 -1.1365,0.32481 -1.32688,0.7757l-0.10677,0l0,-1.36961c0,-0.10039 -0.09923,-0.18183 -0.22168,-0.18183c-0.12242,0 -0.22172,0.08141 -0.22172,0.18183l0,1.36958l-4.59966,0c-0.19042,-0.45093 -0.71311,-0.77574 -1.32688,-0.77574c-0.61379,0 -1.13651,0.32481 -1.32691,0.77574l-1.27433,0c-0.00816,0 -0.01477,-0.00543 -0.01477,-0.01211l0,-0.4l0.96068,0c0.12243,0 0.2217,-0.08137 0.2217,-0.1818c0,-0.10042 -0.09925,-0.18183 -0.2217,-0.18183l-2.12827,0c-0.12243,0 -0.2217,0.08141 -0.2217,0.18183c0,0.10042 0.09925,0.1818 0.2217,0.1818l0.72421,0l0,0.4c0,0.20719 0.20552,0.37574 0.45817,0.37574l1.19754,0c-0.00005,0.00405 -0.00039,0.00803 -0.00039,0.01211c0,0.63489 0.62988,1.15141 1.40406,1.15141c0.77419,0 1.40407,-0.51652 1.40407,-1.15141c0,-0.00408 -0.00034,-0.00807 -0.00038,-0.01211l4.99627,0c-0.00008,0.00405 -0.00038,0.00803 -0.00038,0.01211c0,0.63489 0.62988,1.15141 1.40403,1.15141c0.77419,0 1.40407,-0.51652 1.40407,-1.15141c0,-0.00408 -0.00034,-0.00807 -0.00038,-0.01211l0.72463,0c0.12242,0 0.22168,-0.08141 0.22168,-0.18183l0,-1.93926c0.00004,-0.47877 -0.43074,-0.8766 -0.99113,-0.94655zm-2.79241,-1.97444l1.67007,0c0.26894,0 0.48776,0.17944 0.48776,0.4l0,0.01211l-2.15782,0l0,-0.41211zm0,1.96352l0,-1.18782l1.96993,0l0.36209,1.18782l-2.33201,0zm-6.37007,3.87855c-0.52972,0 -0.96068,-0.35343 -0.96068,-0.78785c0,-0.43442 0.43096,-0.78782 0.96068,-0.78782c0.5297,0 0.96066,0.35339 0.96066,0.78782c0,0.43442 -0.43097,0.78785 -0.96066,0.78785zm7.80368,0c-0.52974,0 -0.9607,-0.35343 -0.9607,-0.78785c0,-0.43442 0.43097,-0.78782 0.9607,-0.78782c0.5297,0 0.96066,0.35339 0.96066,0.78782c0,0.43442 -0.43097,0.78785 -0.96066,0.78785zm1.9066,-2.32715l-0.25126,0c-0.13857,0 -0.25126,-0.09245 -0.25126,-0.20606l0,-0.20606l0.50249,0l0,0.41211l0.00004,0z"/>
   <path stroke="null" id="svg_6" fill="#474747" d="m5.52135,8.25266c-0.25264,0 -0.45816,0.16855 -0.45816,0.37574c0,0.20722 0.20553,0.37574 0.45816,0.37574c0.25264,0 0.45818,-0.16852 0.45818,-0.37574c0,-0.20719 -0.20553,-0.37574 -0.45818,-0.37574z"/>
   <path stroke="null" id="svg_9" fill="#474747" d="m13.32506,8.25266c-0.25264,0 -0.45818,0.16855 -0.45818,0.37574c0,0.20722 0.20553,0.37574 0.45818,0.37574c0.25264,0 0.45818,-0.16852 0.45818,-0.37574c0,-0.20719 -0.20553,-0.37574 -0.45818,-0.37574z"/>
   <path stroke="null" id="svg_10" fill="#474747" d="m10.72342,7.47702l-3.31066,0c-0.12242,0 -0.22168,0.08137 -0.22168,0.1818c0,0.10042 0.09923,0.18183 0.22168,0.18183l3.31066,0c0.12242,0 0.22168,-0.08141 0.22168,-0.18183c0,-0.10042 -0.09923,-0.1818 -0.22168,-0.1818z"/>
   <path stroke="null" id="svg_11" fill="#474747" d="m5.04849,6.70135l-2.8377,0c-0.12243,0 -0.2217,0.08137 -0.2217,0.1818c0,0.10042 0.09925,0.18183 0.2217,0.18183l2.8377,0c0.12243,0 0.2217,-0.08141 0.2217,-0.18183c0,-0.10042 -0.09928,-0.1818 -0.2217,-0.1818z"/>
   <path stroke="null" id="svg_13" fill="#474747" d="m9.2254,4.23342c-0.08656,-0.07099 -0.22696,-0.07099 -0.31352,0.00003l-1.9715,1.61678l-1.02564,-0.84107c-0.08656,-0.07102 -0.22696,-0.07102 -0.31349,0c-0.0866,0.07099 -0.0866,0.1861 0,0.25708l1.18235,0.96965c0.04328,0.03552 0.10003,0.05326 0.15678,0.05326c0.05671,0 0.11346,-0.01773 0.15674,-0.05326l2.12824,-1.74532c0.0866,-0.07105 0.0866,-0.18613 0.00004,-0.25715z"/>
  </g>
 </g>

</svg>